<?xml version="1.0" encoding="iso-8859-1"?>
<!-- Generator: Adobe Illustrator 19.0.0, SVG Export Plug-In . SVG Version: 6.00 Build 0)  -->
<svg version="1.1" id="Layer_1" xmlns="http://www.w3.org/2000/svg" xmlns:xlink="http://www.w3.org/1999/xlink" x="0px" y="0px"
	 viewBox="0 0 512 512" style="enable-background:new 0 0 512 512;" xml:space="preserve">
<g transform="translate(1 1)">
	<g>
		<path style="fill:#FD9808;" d="M255,391.533L255,391.533c-14.507,0-25.6-11.093-25.6-25.6v-17.067h51.2v17.067
			C280.6,380.44,269.507,391.533,255,391.533"/>
		<path style="fill:#FD9808;" d="M255,118.467L255,118.467c14.507,0,25.6,11.093,25.6,25.6v17.067h-51.2v-17.067
			C229.4,129.56,240.493,118.467,255,118.467"/>
		<path style="fill:#FD9808;" d="M286.573,348.867H224.28c-15.36,0-28.16-12.8-28.16-28.16V189.293c0-15.36,12.8-28.16,28.16-28.16
			h62.293c15.36,0,28.16,12.8,28.16,28.16v130.56C314.733,336.067,301.933,348.867,286.573,348.867"/>
	</g>
	<path style="fill:#FFDD09;" d="M260.973,348.867H224.28c-15.36,0-28.16-12.8-28.16-28.16V189.293c0-15.36,12.8-28.16,28.16-28.16
		h36.693c15.36,0,28.16,12.8,28.16,28.16v130.56C289.133,336.067,276.333,348.867,260.973,348.867"/>
	<path style="fill:#FD9808;" d="M297.667,50.2c0,23.893-18.773,42.667-42.667,42.667S212.333,74.093,212.333,50.2
		S231.107,7.533,255,7.533S297.667,26.307,297.667,50.2"/>
	<path style="fill:#FFDD09;" d="M272.067,50.2c0,23.893-13.653,42.667-29.867,42.667S212.333,74.093,212.333,50.2
		S225.987,7.533,242.2,7.533S272.067,26.307,272.067,50.2"/>
	<path style="fill:#FD9808;" d="M297.667,459.8c0,23.893-18.773,42.667-42.667,42.667s-42.667-18.773-42.667-42.667
		c0-23.893,18.773-42.667,42.667-42.667S297.667,435.907,297.667,459.8"/>
	<path style="fill:#FFDD09;" d="M272.067,459.8c0,23.893-13.653,42.667-29.867,42.667s-29.867-18.773-29.867-42.667
		c0-23.893,13.653-42.667,29.867-42.667S272.067,435.907,272.067,459.8"/>
	<polygon style="fill:#FD9808;" points="434.2,493.933 502.467,493.933 502.467,425.667 434.2,425.667 	"/>
	<polygon style="fill:#FFFFFF;" points="348.867,493.933 417.133,493.933 417.133,425.667 348.867,425.667 	"/>
	<polygon style="fill:#FFDD09;" points="374.467,493.933 476.867,493.933 476.867,425.667 374.467,425.667 	"/>
	<polygon style="fill:#FD9808;" points="434.2,289.133 502.467,289.133 502.467,220.867 434.2,220.867 	"/>
	<polygon style="fill:#FFFFFF;" points="348.867,289.133 417.133,289.133 417.133,220.867 348.867,220.867 	"/>
	<polygon style="fill:#FFDD09;" points="374.467,289.133 476.867,289.133 476.867,220.867 374.467,220.867 	"/>
	<polygon style="fill:#FD9808;" points="92.867,289.133 161.133,289.133 161.133,220.867 92.867,220.867 	"/>
	<polygon style="fill:#FFFFFF;" points="7.533,289.133 75.8,289.133 75.8,220.867 7.533,220.867 	"/>
	<polygon style="fill:#FFDD09;" points="33.133,289.133 135.533,289.133 135.533,220.867 33.133,220.867 	"/>
	<polygon style="fill:#FD9808;" points="92.867,493.933 161.133,493.933 161.133,425.667 92.867,425.667 	"/>
	<polygon style="fill:#FFFFFF;" points="7.533,493.933 75.8,493.933 75.8,425.667 7.533,425.667 	"/>
	<polygon style="fill:#FFDD09;" points="33.133,493.933 135.533,493.933 135.533,425.667 33.133,425.667 	"/>
	<polygon style="fill:#FD9808;" points="92.867,84.333 161.133,84.333 161.133,16.067 92.867,16.067 	"/>
	<polygon style="fill:#FFFFFF;" points="7.533,84.333 75.8,84.333 75.8,16.067 7.533,16.067 	"/>
	<polygon style="fill:#FFDD09;" points="33.133,84.333 135.533,84.333 135.533,16.067 33.133,16.067 	"/>
	<polygon style="fill:#FD9808;" points="434.2,84.333 502.467,84.333 502.467,16.067 434.2,16.067 	"/>
	<polygon style="fill:#FFFFFF;" points="348.867,84.333 417.133,84.333 417.133,16.067 348.867,16.067 	"/>
	<polygon style="fill:#FFDD09;" points="374.467,84.333 476.867,84.333 476.867,16.067 374.467,16.067 	"/>
	<path d="M286.573,357.4H224.28c-20.48,0-36.693-16.213-36.693-36.693V189.293c0-20.48,16.213-36.693,36.693-36.693h62.293
		c20.48,0,36.693,16.213,36.693,36.693v130.56C323.267,341.187,307.053,357.4,286.573,357.4z M223.427,169.667
		c-11.093,0-19.627,8.533-19.627,19.627v130.56c0,11.093,8.533,19.627,19.627,19.627h62.293c11.093,0,19.627-8.533,19.627-19.627
		v-130.56c0-11.093-8.533-19.627-19.627-19.627H223.427z"/>
	<path d="M255,400.067c-18.773,0-34.133-15.36-34.133-34.133v-17.067c0-5.12,3.413-8.533,8.533-8.533h51.2
		c5.12,0,8.533,3.413,8.533,8.533v17.067C289.133,384.707,273.773,400.067,255,400.067z M237.933,357.4v8.533
		c0,9.387,7.68,17.067,17.067,17.067s17.067-7.68,17.067-17.067V357.4H237.933z"/>
	<path d="M212.333,58.733h-51.2c-5.12,0-8.533-3.413-8.533-8.533s3.413-8.533,8.533-8.533h51.2c5.12,0,8.533,3.413,8.533,8.533
		S217.453,58.733,212.333,58.733z"/>
	<path d="M161.133,92.867H7.533C2.413,92.867-1,89.453-1,84.333V16.067c0-5.12,3.413-8.533,8.533-8.533h153.6
		c5.12,0,8.533,3.413,8.533,8.533v68.267C169.667,89.453,166.253,92.867,161.133,92.867z M16.067,75.8H152.6V24.6H16.067V75.8z"/>
	<path d="M348.867,58.733h-51.2c-5.12,0-8.533-3.413-8.533-8.533s3.413-8.533,8.533-8.533h51.2c5.12,0,8.533,3.413,8.533,8.533
		S353.987,58.733,348.867,58.733z"/>
	<path d="M502.467,92.867h-153.6c-5.12,0-8.533-3.413-8.533-8.533V16.067c0-5.12,3.413-8.533,8.533-8.533h153.6
		c5.12,0,8.533,3.413,8.533,8.533v68.267C511,89.453,507.587,92.867,502.467,92.867z M357.4,75.8h136.533V24.6H357.4V75.8z"/>
	<path d="M212.333,468.333h-51.2c-5.12,0-8.533-3.413-8.533-8.533s3.413-8.533,8.533-8.533h51.2c5.12,0,8.533,3.413,8.533,8.533
		S217.453,468.333,212.333,468.333z"/>
	<path d="M161.133,502.467H7.533c-5.12,0-8.533-3.413-8.533-8.533v-68.267c0-5.12,3.413-8.533,8.533-8.533h153.6
		c5.12,0,8.533,3.413,8.533,8.533v68.267C169.667,499.053,166.253,502.467,161.133,502.467z M16.067,485.4H152.6v-51.2H16.067V485.4
		z"/>
	<path d="M348.867,468.333h-51.2c-5.12,0-8.533-3.413-8.533-8.533s3.413-8.533,8.533-8.533h51.2c5.12,0,8.533,3.413,8.533,8.533
		S353.987,468.333,348.867,468.333z"/>
	<path d="M502.467,502.467h-153.6c-5.12,0-8.533-3.413-8.533-8.533v-68.267c0-5.12,3.413-8.533,8.533-8.533h153.6
		c5.12,0,8.533,3.413,8.533,8.533v68.267C511,499.053,507.587,502.467,502.467,502.467z M357.4,485.4h136.533v-51.2H357.4V485.4z"/>
	<path d="M58.733,502.467c-5.12,0-8.533-3.413-8.533-8.533v-68.267c0-5.12,3.413-8.533,8.533-8.533s8.533,3.413,8.533,8.533v68.267
		C67.267,499.053,63.853,502.467,58.733,502.467z"/>
	<path d="M109.933,502.467c-5.12,0-8.533-3.413-8.533-8.533v-68.267c0-5.12,3.413-8.533,8.533-8.533s8.533,3.413,8.533,8.533v68.267
		C118.467,499.053,115.053,502.467,109.933,502.467z"/>
	<path d="M400.067,502.467c-5.12,0-8.533-3.413-8.533-8.533v-68.267c0-5.12,3.413-8.533,8.533-8.533s8.533,3.413,8.533,8.533v68.267
		C408.6,499.053,405.187,502.467,400.067,502.467z"/>
	<path d="M451.267,502.467c-5.12,0-8.533-3.413-8.533-8.533v-68.267c0-5.12,3.413-8.533,8.533-8.533s8.533,3.413,8.533,8.533v68.267
		C459.8,499.053,456.387,502.467,451.267,502.467z"/>
	<path d="M161.133,468.333H7.533C2.413,468.333-1,464.92-1,459.8s3.413-8.533,8.533-8.533h153.6c5.12,0,8.533,3.413,8.533,8.533
		S166.253,468.333,161.133,468.333z"/>
	<path d="M502.467,468.333h-153.6c-5.12,0-8.533-3.413-8.533-8.533s3.413-8.533,8.533-8.533h153.6c5.12,0,8.533,3.413,8.533,8.533
		S507.587,468.333,502.467,468.333z"/>
	<path d="M58.733,92.867c-5.12,0-8.533-3.413-8.533-8.533V16.067c0-5.12,3.413-8.533,8.533-8.533s8.533,3.413,8.533,8.533v68.267
		C67.267,89.453,63.853,92.867,58.733,92.867z"/>
	<path d="M109.933,92.867c-5.12,0-8.533-3.413-8.533-8.533V16.067c0-5.12,3.413-8.533,8.533-8.533s8.533,3.413,8.533,8.533v68.267
		C118.467,89.453,115.053,92.867,109.933,92.867z"/>
	<path d="M400.067,92.867c-5.12,0-8.533-3.413-8.533-8.533V16.067c0-5.12,3.413-8.533,8.533-8.533s8.533,3.413,8.533,8.533v68.267
		C408.6,89.453,405.187,92.867,400.067,92.867z"/>
	<path d="M451.267,92.867c-5.12,0-8.533-3.413-8.533-8.533V16.067c0-5.12,3.413-8.533,8.533-8.533s8.533,3.413,8.533,8.533v68.267
		C459.8,89.453,456.387,92.867,451.267,92.867z"/>
	<path d="M161.133,58.733H7.533C2.413,58.733-1,55.32-1,50.2s3.413-8.533,8.533-8.533h153.6c5.12,0,8.533,3.413,8.533,8.533
		S166.253,58.733,161.133,58.733z"/>
	<path d="M502.467,58.733h-153.6c-5.12,0-8.533-3.413-8.533-8.533s3.413-8.533,8.533-8.533h153.6c5.12,0,8.533,3.413,8.533,8.533
		S507.587,58.733,502.467,58.733z"/>
	<path d="M195.267,263.533h-34.133c-5.12,0-8.533-3.413-8.533-8.533s3.413-8.533,8.533-8.533h34.133c5.12,0,8.533,3.413,8.533,8.533
		S200.387,263.533,195.267,263.533z"/>
	<path d="M161.133,297.667H7.533c-5.12,0-8.533-3.413-8.533-8.533v-68.267c0-5.12,3.413-8.533,8.533-8.533h153.6
		c5.12,0,8.533,3.413,8.533,8.533v68.267C169.667,294.253,166.253,297.667,161.133,297.667z M16.067,280.6H152.6v-51.2H16.067V280.6
		z"/>
	<path d="M348.867,263.533h-34.133c-5.12,0-8.533-3.413-8.533-8.533s3.413-8.533,8.533-8.533h34.133c5.12,0,8.533,3.413,8.533,8.533
		S353.987,263.533,348.867,263.533z"/>
	<path d="M502.467,297.667h-153.6c-5.12,0-8.533-3.413-8.533-8.533v-68.267c0-5.12,3.413-8.533,8.533-8.533h153.6
		c5.12,0,8.533,3.413,8.533,8.533v68.267C511,294.253,507.587,297.667,502.467,297.667z M357.4,280.6h136.533v-51.2H357.4V280.6z"/>
	<path d="M58.733,297.667c-5.12,0-8.533-3.413-8.533-8.533v-68.267c0-5.12,3.413-8.533,8.533-8.533s8.533,3.413,8.533,8.533v68.267
		C67.267,294.253,63.853,297.667,58.733,297.667z"/>
	<path d="M109.933,297.667c-5.12,0-8.533-3.413-8.533-8.533v-68.267c0-5.12,3.413-8.533,8.533-8.533s8.533,3.413,8.533,8.533v68.267
		C118.467,294.253,115.053,297.667,109.933,297.667z"/>
	<path d="M400.067,297.667c-5.12,0-8.533-3.413-8.533-8.533v-68.267c0-5.12,3.413-8.533,8.533-8.533s8.533,3.413,8.533,8.533v68.267
		C408.6,294.253,405.187,297.667,400.067,297.667z"/>
	<path d="M451.267,297.667c-5.12,0-8.533-3.413-8.533-8.533v-68.267c0-5.12,3.413-8.533,8.533-8.533s8.533,3.413,8.533,8.533v68.267
		C459.8,294.253,456.387,297.667,451.267,297.667z"/>
	<path d="M161.133,263.533H7.533C2.413,263.533-1,260.12-1,255s3.413-8.533,8.533-8.533h153.6c5.12,0,8.533,3.413,8.533,8.533
		S166.253,263.533,161.133,263.533z"/>
	<path d="M502.467,263.533h-153.6c-5.12,0-8.533-3.413-8.533-8.533s3.413-8.533,8.533-8.533h153.6c5.12,0,8.533,3.413,8.533,8.533
		S507.587,263.533,502.467,263.533z"/>
	<path d="M255,101.4c-28.16,0-51.2-23.04-51.2-51.2S226.84-1,255-1s51.2,23.04,51.2,51.2S283.16,101.4,255,101.4z M255,16.067
		c-18.773,0-34.133,15.36-34.133,34.133S236.227,84.333,255,84.333s34.133-15.36,34.133-34.133S273.773,16.067,255,16.067z"/>
	<path d="M255,511c-28.16,0-51.2-23.04-51.2-51.2s23.04-51.2,51.2-51.2s51.2,23.04,51.2,51.2S283.16,511,255,511z M255,425.667
		c-18.773,0-34.133,15.36-34.133,34.133s15.36,34.133,34.133,34.133s34.133-15.36,34.133-34.133S273.773,425.667,255,425.667z"/>
	<path d="M255,425.667c-5.12,0-8.533-3.413-8.533-8.533v-25.6c0-5.12,3.413-8.533,8.533-8.533s8.533,3.413,8.533,8.533v25.6
		C263.533,422.253,260.12,425.667,255,425.667z"/>
	<path d="M255,127c-5.12,0-8.533-3.413-8.533-8.533v-25.6c0-5.12,3.413-8.533,8.533-8.533s8.533,3.413,8.533,8.533v25.6
		C263.533,123.587,260.12,127,255,127z"/>
	<path d="M280.6,212.333h-51.2c-5.12,0-8.533-3.413-8.533-8.533c0-5.12,3.413-8.533,8.533-8.533h51.2
		c5.12,0,8.533,3.413,8.533,8.533C289.133,208.92,285.72,212.333,280.6,212.333z"/>
	<path d="M280.6,246.467h-51.2c-5.12,0-8.533-3.413-8.533-8.533c0-5.12,3.413-8.533,8.533-8.533h51.2
		c5.12,0,8.533,3.413,8.533,8.533C289.133,243.053,285.72,246.467,280.6,246.467z"/>
	<path d="M280.6,280.6h-51.2c-5.12,0-8.533-3.413-8.533-8.533s3.413-8.533,8.533-8.533h51.2c5.12,0,8.533,3.413,8.533,8.533
		S285.72,280.6,280.6,280.6z"/>
	<path d="M280.6,314.733h-51.2c-5.12,0-8.533-3.413-8.533-8.533s3.413-8.533,8.533-8.533h51.2c5.12,0,8.533,3.413,8.533,8.533
		S285.72,314.733,280.6,314.733z"/>
	<path d="M263.533,459.8c0,5.12-3.413,8.533-8.533,8.533s-8.533-3.413-8.533-8.533s3.413-8.533,8.533-8.533
		S263.533,454.68,263.533,459.8"/>
	<path d="M263.533,50.2c0,5.12-3.413,8.533-8.533,8.533s-8.533-3.413-8.533-8.533s3.413-8.533,8.533-8.533
		S263.533,45.08,263.533,50.2"/>
	<path d="M280.6,169.667h-51.2c-5.12,0-8.533-3.413-8.533-8.533v-17.067c0-18.773,15.36-34.133,34.133-34.133
		s34.133,15.36,34.133,34.133v17.067C289.133,166.253,285.72,169.667,280.6,169.667z M237.933,152.6h34.133v-8.533
		c0-9.387-7.68-17.067-17.067-17.067s-17.067,7.68-17.067,17.067V152.6z"/>
</g>
<g>
</g>
<g>
</g>
<g>
</g>
<g>
</g>
<g>
</g>
<g>
</g>
<g>
</g>
<g>
</g>
<g>
</g>
<g>
</g>
<g>
</g>
<g>
</g>
<g>
</g>
<g>
</g>
<g>
</g>
</svg>
